<svg id="XMLID_834_" xmlns="http://www.w3.org/2000/svg" width="8.345" height="16.519" viewBox="0 0 8.345 16.519">
  <path id="XMLID_835_" d="M17.586,8.8H19.4v7.455a.266.266,0,0,0,.266.266h3.07A.266.266,0,0,0,23,16.253V8.833h2.082a.266.266,0,0,0,.265-.236l.316-2.744a.266.266,0,0,0-.265-.3H23V3.836c0-.519.279-.782.83-.782H25.4a.266.266,0,0,0,.266-.266V.268A.266.266,0,0,0,25.4,0H23.238l-.1,0a4.14,4.14,0,0,0-2.707,1.021,2.839,2.839,0,0,0-.944,2.524V5.556h-1.9a.266.266,0,0,0-.266.266V8.532A.266.266,0,0,0,17.586,8.8Z" transform="translate(-17.32)" fill="#fff"/>
</svg>
