<svg xmlns="http://www.w3.org/2000/svg" width="16.177" height="16.177" viewBox="0 0 16.177 16.177">
  <path id="iconmonstr-instagram-11" d="M8.088,1.458c2.16,0,2.416.008,3.269.047,2.192.1,3.216,1.14,3.316,3.316.039.853.047,1.109.047,3.268s-.008,2.416-.047,3.268c-.1,2.174-1.122,3.216-3.316,3.316-.853.039-1.108.047-3.269.047s-2.416-.008-3.268-.047c-2.2-.1-3.216-1.145-3.316-3.316-.039-.853-.047-1.108-.047-3.268S1.466,5.673,1.5,4.82C1.6,2.645,2.626,1.6,4.82,1.5c.853-.038,1.109-.047,3.268-.047ZM8.088,0c-2.2,0-2.472.009-3.334.049C1.817.183.184,1.813.049,4.753.009,5.617,0,5.892,0,8.088s.009,2.472.049,3.335c.135,2.937,1.765,4.57,4.7,4.7.863.039,1.138.049,3.335.049s2.472-.009,3.335-.049c2.935-.135,4.571-1.765,4.7-4.7.04-.863.049-1.138.049-3.335s-.009-2.472-.049-3.334C16,1.819,14.364.184,11.424.049,10.561.009,10.285,0,8.088,0Zm0,3.935a4.154,4.154,0,1,0,4.153,4.153A4.154,4.154,0,0,0,8.088,3.935Zm0,6.85a2.7,2.7,0,1,1,2.7-2.7A2.7,2.7,0,0,1,8.088,10.785ZM12.406,2.8a.971.971,0,1,0,.97.971A.971.971,0,0,0,12.406,2.8Z" fill="#fff"/>
</svg>
