<svg xmlns="http://www.w3.org/2000/svg" width="16.654" height="16.654" viewBox="0 0 16.654 16.654">
  <path id="Path_103" data-name="Path 103" d="M12.025,10.6a11.391,11.391,0,0,0,.416,2.4l-1.11,1.11a13.717,13.717,0,0,1-.7-3.507h1.4m9.122,11.121a11.8,11.8,0,0,0,2.406.416v1.379a14.273,14.273,0,0,1-3.516-.694l1.11-1.1M12.913,8.75H9.675a.928.928,0,0,0-.925.925A15.727,15.727,0,0,0,24.478,25.4a.928.928,0,0,0,.925-.925V21.249a.928.928,0,0,0-.925-.925,10.554,10.554,0,0,1-3.3-.527.777.777,0,0,0-.287-.046.948.948,0,0,0-.657.268L18.2,22.054a14.016,14.016,0,0,1-6.1-6.1l2.035-2.035a.928.928,0,0,0,.231-.944,10.511,10.511,0,0,1-.527-3.3A.928.928,0,0,0,12.913,8.75Z" transform="translate(-8.75 -8.75)" fill="#fff"/>
</svg>
